<mxfile host="Electron" modified="2023-08-03T09:15:32.924Z" agent="Mozilla/5.0 (Windows NT 10.0; Win64; x64) AppleWebKit/537.36 (KHTML, like Gecko) draw.io/21.6.5 Chrome/114.0.5735.243 Electron/25.3.1 Safari/537.36" etag="CXrINW6ZriXvD5fkHcdg" version="21.6.5" type="device" pages="2">
  <diagram id="C5RBs43oDa-KdzZeNtuy" name="Page-1">
    <mxGraphModel dx="1607" dy="504" grid="1" gridSize="10" guides="1" tooltips="1" connect="1" arrows="1" fold="1" page="1" pageScale="1" pageWidth="827" pageHeight="1169" math="0" shadow="0">
      <root>
        <mxCell id="WIyWlLk6GJQsqaUBKTNV-0" />
        <mxCell id="WIyWlLk6GJQsqaUBKTNV-1" parent="WIyWlLk6GJQsqaUBKTNV-0" />
        <mxCell id="f5Id884hNNlfexIlxboq-25" value="Private subnet" style="rounded=0;whiteSpace=wrap;html=1;fillColor=#fff2cc;strokeColor=#d6b656;align=right;gradientColor=#ffd966;" parent="WIyWlLk6GJQsqaUBKTNV-1" vertex="1">
          <mxGeometry x="140" y="700" width="180" height="60" as="geometry" />
        </mxCell>
        <mxCell id="f5Id884hNNlfexIlxboq-32" value="Generic&#xa;database" style="sketch=0;outlineConnect=0;dashed=0;verticalLabelPosition=bottom;verticalAlign=top;align=center;html=1;fontSize=12;fontStyle=0;aspect=fixed;shape=mxgraph.aws4.resourceIcon;resIcon=mxgraph.aws4.generic_database;fillColor=#dae8fc;strokeColor=#6c8ebf;gradientColor=#7ea6e0;" parent="WIyWlLk6GJQsqaUBKTNV-1" vertex="1">
          <mxGeometry x="140" y="699.5" width="60" height="60" as="geometry" />
        </mxCell>
        <mxCell id="f5Id884hNNlfexIlxboq-36" value="" style="rounded=0;whiteSpace=wrap;html=1;" parent="WIyWlLk6GJQsqaUBKTNV-1" vertex="1">
          <mxGeometry x="140" y="450" width="560" height="70" as="geometry" />
        </mxCell>
        <mxCell id="f5Id884hNNlfexIlxboq-26" value="public subnet" style="rounded=0;whiteSpace=wrap;html=1;fillColor=#6d8764;strokeColor=#3A5431;fontColor=#ffffff;" parent="WIyWlLk6GJQsqaUBKTNV-1" vertex="1">
          <mxGeometry x="515" y="450" width="185" height="70" as="geometry" />
        </mxCell>
        <mxCell id="f5Id884hNNlfexIlxboq-23" value="public subnet" style="rounded=0;whiteSpace=wrap;html=1;fillColor=#6d8764;strokeColor=#3A5431;fontColor=#ffffff;" parent="WIyWlLk6GJQsqaUBKTNV-1" vertex="1">
          <mxGeometry x="140" y="450" width="180" height="70" as="geometry" />
        </mxCell>
        <mxCell id="f5Id884hNNlfexIlxboq-37" value="Auto Scaling" style="sketch=0;outlineConnect=0;fontColor=#232F3E;gradientColor=none;strokeColor=#232F3E;fillColor=#ffffff;dashed=0;verticalLabelPosition=bottom;verticalAlign=top;align=center;html=1;fontSize=12;fontStyle=0;aspect=fixed;shape=mxgraph.aws4.resourceIcon;resIcon=mxgraph.aws4.auto_scaling;" parent="WIyWlLk6GJQsqaUBKTNV-1" vertex="1">
          <mxGeometry x="450" y="453" width="37" height="37" as="geometry" />
        </mxCell>
        <mxCell id="f5Id884hNNlfexIlxboq-39" value="" style="rounded=0;whiteSpace=wrap;html=1;" parent="WIyWlLk6GJQsqaUBKTNV-1" vertex="1">
          <mxGeometry x="134" y="570" width="560" height="70" as="geometry" />
        </mxCell>
        <mxCell id="f5Id884hNNlfexIlxboq-24" value="Private subnet" style="rounded=0;whiteSpace=wrap;html=1;fillColor=#fff2cc;strokeColor=#d6b656;gradientColor=#ffd966;" parent="WIyWlLk6GJQsqaUBKTNV-1" vertex="1">
          <mxGeometry x="130" y="570" width="190" height="70" as="geometry" />
        </mxCell>
        <mxCell id="f5Id884hNNlfexIlxboq-27" value="Private Subnet" style="rounded=0;whiteSpace=wrap;html=1;fillColor=#fff2cc;strokeColor=#d6b656;gradientColor=#ffd966;" parent="WIyWlLk6GJQsqaUBKTNV-1" vertex="1">
          <mxGeometry x="515" y="570" width="185" height="70" as="geometry" />
        </mxCell>
        <mxCell id="f5Id884hNNlfexIlxboq-42" value="Auto Scaling" style="sketch=0;outlineConnect=0;fontColor=#232F3E;gradientColor=none;strokeColor=#232F3E;fillColor=#ffffff;dashed=0;verticalLabelPosition=bottom;verticalAlign=top;align=center;html=1;fontSize=12;fontStyle=0;aspect=fixed;shape=mxgraph.aws4.resourceIcon;resIcon=mxgraph.aws4.auto_scaling;" parent="WIyWlLk6GJQsqaUBKTNV-1" vertex="1">
          <mxGeometry x="450" y="570" width="37" height="37" as="geometry" />
        </mxCell>
        <mxCell id="f5Id884hNNlfexIlxboq-43" value="Security group" style="fillColor=none;strokeColor=#DD3522;verticalAlign=top;fontStyle=0;fontColor=#DD3522;whiteSpace=wrap;html=1;" parent="WIyWlLk6GJQsqaUBKTNV-1" vertex="1">
          <mxGeometry x="130" y="570" width="570" height="70" as="geometry" />
        </mxCell>
        <mxCell id="f5Id884hNNlfexIlxboq-44" value="Security group" style="fillColor=none;strokeColor=#DD3522;verticalAlign=top;fontStyle=0;fontColor=#DD3522;whiteSpace=wrap;html=1;" parent="WIyWlLk6GJQsqaUBKTNV-1" vertex="1">
          <mxGeometry x="140" y="450" width="560" height="70" as="geometry" />
        </mxCell>
        <mxCell id="f5Id884hNNlfexIlxboq-45" value="Security group" style="fillColor=none;strokeColor=#DD3522;verticalAlign=top;fontStyle=0;fontColor=#DD3522;whiteSpace=wrap;html=1;" parent="WIyWlLk6GJQsqaUBKTNV-1" vertex="1">
          <mxGeometry x="140" y="700" width="560" height="60" as="geometry" />
        </mxCell>
        <mxCell id="f5Id884hNNlfexIlxboq-47" value="Region" style="points=[[0,0],[0.25,0],[0.5,0],[0.75,0],[1,0],[1,0.25],[1,0.5],[1,0.75],[1,1],[0.75,1],[0.5,1],[0.25,1],[0,1],[0,0.75],[0,0.5],[0,0.25]];outlineConnect=0;gradientColor=none;html=1;whiteSpace=wrap;fontSize=12;fontStyle=0;container=1;pointerEvents=0;collapsible=0;recursiveResize=0;shape=mxgraph.aws4.group;grIcon=mxgraph.aws4.group_region;strokeColor=#147EBA;fillColor=none;verticalAlign=top;align=left;spacingLeft=30;fontColor=#147EBA;dashed=1;" parent="WIyWlLk6GJQsqaUBKTNV-1" vertex="1">
          <mxGeometry x="70" y="390" width="690" height="430" as="geometry" />
        </mxCell>
        <mxCell id="f5Id884hNNlfexIlxboq-48" value="AWS Cloud" style="points=[[0,0],[0.25,0],[0.5,0],[0.75,0],[1,0],[1,0.25],[1,0.5],[1,0.75],[1,1],[0.75,1],[0.5,1],[0.25,1],[0,1],[0,0.75],[0,0.5],[0,0.25]];outlineConnect=0;gradientColor=none;html=1;whiteSpace=wrap;fontSize=12;fontStyle=0;container=1;pointerEvents=0;collapsible=0;recursiveResize=0;shape=mxgraph.aws4.group;grIcon=mxgraph.aws4.group_aws_cloud_alt;strokeColor=#232F3E;fillColor=none;verticalAlign=top;align=left;spacingLeft=30;fontColor=#232F3E;dashed=0;" parent="WIyWlLk6GJQsqaUBKTNV-1" vertex="1">
          <mxGeometry x="50" y="368" width="740" height="482" as="geometry" />
        </mxCell>
        <mxCell id="f5Id884hNNlfexIlxboq-49" value="VPC" style="points=[[0,0],[0.25,0],[0.5,0],[0.75,0],[1,0],[1,0.25],[1,0.5],[1,0.75],[1,1],[0.75,1],[0.5,1],[0.25,1],[0,1],[0,0.75],[0,0.5],[0,0.25]];outlineConnect=0;gradientColor=none;html=1;whiteSpace=wrap;fontSize=12;fontStyle=0;container=1;pointerEvents=0;collapsible=0;recursiveResize=0;shape=mxgraph.aws4.group;grIcon=mxgraph.aws4.group_vpc;strokeColor=#248814;fillColor=none;verticalAlign=top;align=left;spacingLeft=30;fontColor=#AAB7B8;dashed=0;" parent="f5Id884hNNlfexIlxboq-48" vertex="1">
          <mxGeometry x="50" y="60" width="640" height="370" as="geometry" />
        </mxCell>
        <mxCell id="f5Id884hNNlfexIlxboq-29" value="IGW" style="ellipse;whiteSpace=wrap;html=1;aspect=fixed;" parent="f5Id884hNNlfexIlxboq-49" vertex="1">
          <mxGeometry x="314" y="-18" width="30" height="30" as="geometry" />
        </mxCell>
        <mxCell id="f5Id884hNNlfexIlxboq-66" value="NGW" style="ellipse;whiteSpace=wrap;html=1;aspect=fixed;" parent="f5Id884hNNlfexIlxboq-49" vertex="1">
          <mxGeometry x="600" y="12" width="40" height="40" as="geometry" />
        </mxCell>
        <mxCell id="f5Id884hNNlfexIlxboq-51" value="" style="group" parent="WIyWlLk6GJQsqaUBKTNV-1" vertex="1" connectable="0">
          <mxGeometry x="60" y="70" width="690" height="130" as="geometry" />
        </mxCell>
        <mxCell id="1_1BqXjX7RwRbNt-Vq8N-7" value="Data Base Tier" style="rounded=0;whiteSpace=wrap;html=1;fillColor=#ffe6cc;strokeColor=#d79b00;" parent="f5Id884hNNlfexIlxboq-51" vertex="1">
          <mxGeometry y="10" width="120" height="90" as="geometry" />
        </mxCell>
        <mxCell id="1_1BqXjX7RwRbNt-Vq8N-8" value="App Tier" style="rounded=0;whiteSpace=wrap;html=1;fillColor=#dae8fc;strokeColor=#6c8ebf;" parent="f5Id884hNNlfexIlxboq-51" vertex="1">
          <mxGeometry x="200" y="10" width="120" height="90" as="geometry" />
        </mxCell>
        <mxCell id="1_1BqXjX7RwRbNt-Vq8N-9" value="Web Tier" style="rounded=0;whiteSpace=wrap;html=1;fillColor=#d5e8d4;strokeColor=#82b366;" parent="f5Id884hNNlfexIlxboq-51" vertex="1">
          <mxGeometry x="400" y="10" width="120" height="90" as="geometry" />
        </mxCell>
        <mxCell id="1_1BqXjX7RwRbNt-Vq8N-21" value="" style="verticalLabelPosition=bottom;verticalAlign=top;html=1;strokeWidth=2;shape=mxgraph.arrows2.arrow;dy=0.6;dx=40;notch=0;fillColor=#6d8764;fontColor=#ffffff;strokeColor=#3A5431;" parent="f5Id884hNNlfexIlxboq-51" vertex="1">
          <mxGeometry x="120" y="80" width="80" height="40" as="geometry" />
        </mxCell>
        <mxCell id="1_1BqXjX7RwRbNt-Vq8N-23" value="" style="verticalLabelPosition=bottom;verticalAlign=top;html=1;strokeWidth=2;shape=mxgraph.arrows2.arrow;dy=0.6;dx=40;notch=0;fillColor=#6d8764;fontColor=#ffffff;strokeColor=#3A5431;" parent="f5Id884hNNlfexIlxboq-51" vertex="1">
          <mxGeometry x="320" y="80" width="80" height="40" as="geometry" />
        </mxCell>
        <mxCell id="1_1BqXjX7RwRbNt-Vq8N-29" value="" style="verticalLabelPosition=bottom;verticalAlign=top;html=1;strokeWidth=2;shape=mxgraph.arrows2.arrow;dy=0.6;dx=40;notch=0;fillColor=#6d8764;fontColor=#ffffff;strokeColor=#3A5431;" parent="f5Id884hNNlfexIlxboq-51" vertex="1">
          <mxGeometry x="520" y="80" width="80" height="40" as="geometry" />
        </mxCell>
        <mxCell id="1_1BqXjX7RwRbNt-Vq8N-30" value="" style="verticalLabelPosition=bottom;verticalAlign=top;html=1;strokeWidth=2;shape=mxgraph.arrows2.arrow;dy=0.6;dx=40;notch=0;fillColor=#141414;rotation=180;fontColor=#FFFFFF;align=center;" parent="f5Id884hNNlfexIlxboq-51" vertex="1">
          <mxGeometry x="520" width="80" height="40" as="geometry" />
        </mxCell>
        <mxCell id="1_1BqXjX7RwRbNt-Vq8N-32" value="" style="verticalLabelPosition=bottom;verticalAlign=top;html=1;strokeWidth=2;shape=mxgraph.arrows2.arrow;dy=0.6;dx=40;notch=0;fillColor=#141414;rotation=180;" parent="f5Id884hNNlfexIlxboq-51" vertex="1">
          <mxGeometry x="320" width="80" height="40" as="geometry" />
        </mxCell>
        <mxCell id="1_1BqXjX7RwRbNt-Vq8N-33" value="" style="verticalLabelPosition=bottom;verticalAlign=top;html=1;strokeWidth=2;shape=mxgraph.arrows2.arrow;dy=0.6;dx=40;notch=0;fillColor=#141414;rotation=180;" parent="f5Id884hNNlfexIlxboq-51" vertex="1">
          <mxGeometry x="120" width="80" height="40" as="geometry" />
        </mxCell>
        <mxCell id="1_1BqXjX7RwRbNt-Vq8N-34" value="" style="group" parent="f5Id884hNNlfexIlxboq-51" vertex="1" connectable="0">
          <mxGeometry x="610" y="10" width="80" height="120" as="geometry" />
        </mxCell>
        <mxCell id="1_1BqXjX7RwRbNt-Vq8N-10" value="PC" style="whiteSpace=wrap;html=1;aspect=fixed;fillColor=#ffcd28;gradientColor=#ffa500;strokeColor=#d79b00;" parent="1_1BqXjX7RwRbNt-Vq8N-34" vertex="1">
          <mxGeometry width="80" height="80" as="geometry" />
        </mxCell>
        <mxCell id="1_1BqXjX7RwRbNt-Vq8N-13" value="" style="endArrow=none;html=1;rounded=0;fillColor=#ffcd28;gradientColor=#ffa500;strokeColor=#d79b00;" parent="1_1BqXjX7RwRbNt-Vq8N-34" edge="1">
          <mxGeometry width="50" height="50" relative="1" as="geometry">
            <mxPoint y="120" as="sourcePoint" />
            <mxPoint x="30" y="80" as="targetPoint" />
          </mxGeometry>
        </mxCell>
        <mxCell id="1_1BqXjX7RwRbNt-Vq8N-15" value="" style="endArrow=none;html=1;rounded=0;fillColor=#ffcd28;gradientColor=#ffa500;strokeColor=#d79b00;" parent="1_1BqXjX7RwRbNt-Vq8N-34" edge="1">
          <mxGeometry width="50" height="50" relative="1" as="geometry">
            <mxPoint x="50" y="80" as="sourcePoint" />
            <mxPoint x="70" y="120" as="targetPoint" />
          </mxGeometry>
        </mxCell>
        <mxCell id="1_1BqXjX7RwRbNt-Vq8N-17" value="" style="endArrow=none;html=1;rounded=0;fillColor=#ffcd28;gradientColor=#ffa500;strokeColor=#d79b00;" parent="1_1BqXjX7RwRbNt-Vq8N-34" edge="1">
          <mxGeometry width="50" height="50" relative="1" as="geometry">
            <mxPoint y="120" as="sourcePoint" />
            <mxPoint x="70" y="120" as="targetPoint" />
          </mxGeometry>
        </mxCell>
        <mxCell id="f5Id884hNNlfexIlxboq-56" value="" style="shape=singleArrow;direction=west;whiteSpace=wrap;html=1;strokeColor=#000000;arrowWidth=0.2425916883680524;arrowSize=0.25666625976562424;fillColor=#141414;" parent="WIyWlLk6GJQsqaUBKTNV-1" vertex="1">
          <mxGeometry x="-50" y="456.5" width="100" height="60" as="geometry" />
        </mxCell>
        <mxCell id="f5Id884hNNlfexIlxboq-57" value="" style="shape=singleArrow;direction=west;whiteSpace=wrap;html=1;fillColor=#141414;" parent="WIyWlLk6GJQsqaUBKTNV-1" vertex="1">
          <mxGeometry x="-50" y="710" width="100" height="60" as="geometry" />
        </mxCell>
        <mxCell id="f5Id884hNNlfexIlxboq-58" value="" style="shape=singleArrow;direction=west;whiteSpace=wrap;html=1;fillColor=#031408;" parent="WIyWlLk6GJQsqaUBKTNV-1" vertex="1">
          <mxGeometry x="-50" y="580" width="100" height="60" as="geometry" />
        </mxCell>
        <mxCell id="f5Id884hNNlfexIlxboq-60" value="Availability zone" style="sketch=0;outlineConnect=0;gradientColor=none;html=1;whiteSpace=wrap;fontSize=12;fontStyle=0;shape=mxgraph.aws4.group;grIcon=mxgraph.aws4.group_availability_zone;strokeColor=#545B64;fillColor=none;verticalAlign=top;align=left;spacingLeft=30;fontColor=#545B64;dashed=1;" parent="WIyWlLk6GJQsqaUBKTNV-1" vertex="1">
          <mxGeometry x="130" y="400" width="230" height="410" as="geometry" />
        </mxCell>
        <mxCell id="f5Id884hNNlfexIlxboq-61" value="Availability zone" style="sketch=0;outlineConnect=0;gradientColor=none;html=1;whiteSpace=wrap;fontSize=12;fontStyle=0;shape=mxgraph.aws4.group;grIcon=mxgraph.aws4.group_availability_zone;strokeColor=#545B64;fillColor=none;verticalAlign=top;align=left;spacingLeft=30;fontColor=#545B64;dashed=1;" parent="WIyWlLk6GJQsqaUBKTNV-1" vertex="1">
          <mxGeometry x="510" y="400" width="210" height="410" as="geometry" />
        </mxCell>
        <mxCell id="f5Id884hNNlfexIlxboq-62" value="" style="sketch=0;points=[[0,0,0],[0.25,0,0],[0.5,0,0],[0.75,0,0],[1,0,0],[0,1,0],[0.25,1,0],[0.5,1,0],[0.75,1,0],[1,1,0],[0,0.25,0],[0,0.5,0],[0,0.75,0],[1,0.25,0],[1,0.5,0],[1,0.75,0]];outlineConnect=0;fontColor=#232F3E;gradientColor=#F78E04;gradientDirection=north;fillColor=#D05C17;strokeColor=#ffffff;dashed=0;verticalLabelPosition=bottom;verticalAlign=top;align=center;html=1;fontSize=12;fontStyle=0;aspect=fixed;shape=mxgraph.aws4.resourceIcon;resIcon=mxgraph.aws4.ec2;" parent="WIyWlLk6GJQsqaUBKTNV-1" vertex="1">
          <mxGeometry x="-131" y="453" width="78" height="78" as="geometry" />
        </mxCell>
        <mxCell id="f5Id884hNNlfexIlxboq-63" value="" style="sketch=0;points=[[0,0,0],[0.25,0,0],[0.5,0,0],[0.75,0,0],[1,0,0],[0,1,0],[0.25,1,0],[0.5,1,0],[0.75,1,0],[1,1,0],[0,0.25,0],[0,0.5,0],[0,0.75,0],[1,0.25,0],[1,0.5,0],[1,0.75,0]];outlineConnect=0;fontColor=#232F3E;gradientColor=#F78E04;gradientDirection=north;fillColor=#D05C17;strokeColor=#ffffff;dashed=0;verticalLabelPosition=bottom;verticalAlign=top;align=center;html=1;fontSize=12;fontStyle=0;aspect=fixed;shape=mxgraph.aws4.resourceIcon;resIcon=mxgraph.aws4.ec2;" parent="WIyWlLk6GJQsqaUBKTNV-1" vertex="1">
          <mxGeometry x="-128" y="566" width="78" height="78" as="geometry" />
        </mxCell>
        <mxCell id="f5Id884hNNlfexIlxboq-64" value="" style="outlineConnect=0;dashed=0;verticalLabelPosition=bottom;verticalAlign=top;align=center;html=1;shape=mxgraph.aws3.rds;fillColor=#2E73B8;gradientColor=none;" parent="WIyWlLk6GJQsqaUBKTNV-1" vertex="1">
          <mxGeometry x="-128" y="699.5" width="72" height="81" as="geometry" />
        </mxCell>
        <mxCell id="f5Id884hNNlfexIlxboq-68" value="WEB TIER" style="rounded=1;whiteSpace=wrap;html=1;" parent="WIyWlLk6GJQsqaUBKTNV-1" vertex="1">
          <mxGeometry x="-280" y="462" width="120" height="60" as="geometry" />
        </mxCell>
        <mxCell id="f5Id884hNNlfexIlxboq-69" value="DATABASE TIER" style="rounded=1;whiteSpace=wrap;html=1;" parent="WIyWlLk6GJQsqaUBKTNV-1" vertex="1">
          <mxGeometry x="-280" y="710" width="120" height="60" as="geometry" />
        </mxCell>
        <mxCell id="f5Id884hNNlfexIlxboq-70" value="APP TIER" style="rounded=1;whiteSpace=wrap;html=1;" parent="WIyWlLk6GJQsqaUBKTNV-1" vertex="1">
          <mxGeometry x="-280" y="575" width="120" height="60" as="geometry" />
        </mxCell>
        <mxCell id="f5Id884hNNlfexIlxboq-71" value="Private Subnet" style="rounded=0;whiteSpace=wrap;html=1;fillColor=#fff2cc;gradientColor=#ffd966;strokeColor=#d6b656;align=right;" parent="WIyWlLk6GJQsqaUBKTNV-1" vertex="1">
          <mxGeometry x="520" y="700" width="180" height="60" as="geometry" />
        </mxCell>
        <mxCell id="f5Id884hNNlfexIlxboq-72" value="" style="strokeWidth=2;html=1;shape=mxgraph.flowchart.database;whiteSpace=wrap;fillColor=#dae8fc;gradientColor=#7ea6e0;strokeColor=#6c8ebf;" parent="WIyWlLk6GJQsqaUBKTNV-1" vertex="1">
          <mxGeometry x="520" y="700" width="40" height="60" as="geometry" />
        </mxCell>
        <mxCell id="f5Id884hNNlfexIlxboq-74" value="INPUT" style="text;html=1;align=center;verticalAlign=middle;resizable=0;points=[];autosize=1;strokeColor=none;fillColor=none;" parent="WIyWlLk6GJQsqaUBKTNV-1" vertex="1">
          <mxGeometry x="580" y="30" width="60" height="30" as="geometry" />
        </mxCell>
        <mxCell id="f5Id884hNNlfexIlxboq-75" value="INPUT" style="text;html=1;align=center;verticalAlign=middle;resizable=0;points=[];autosize=1;strokeColor=none;fillColor=none;" parent="WIyWlLk6GJQsqaUBKTNV-1" vertex="1">
          <mxGeometry x="390" y="30" width="60" height="30" as="geometry" />
        </mxCell>
        <mxCell id="f5Id884hNNlfexIlxboq-77" value="INPUT" style="text;html=1;align=center;verticalAlign=middle;resizable=0;points=[];autosize=1;strokeColor=none;fillColor=none;" parent="WIyWlLk6GJQsqaUBKTNV-1" vertex="1">
          <mxGeometry x="190" y="30" width="60" height="30" as="geometry" />
        </mxCell>
        <mxCell id="f5Id884hNNlfexIlxboq-78" value="OUT PUT" style="text;html=1;align=center;verticalAlign=middle;resizable=0;points=[];autosize=1;strokeColor=none;fillColor=none;" parent="WIyWlLk6GJQsqaUBKTNV-1" vertex="1">
          <mxGeometry x="170" y="208" width="80" height="30" as="geometry" />
        </mxCell>
        <mxCell id="f5Id884hNNlfexIlxboq-79" value="OUT PUT" style="text;html=1;align=center;verticalAlign=middle;resizable=0;points=[];autosize=1;strokeColor=none;fillColor=none;" parent="WIyWlLk6GJQsqaUBKTNV-1" vertex="1">
          <mxGeometry x="375" y="208" width="80" height="30" as="geometry" />
        </mxCell>
        <mxCell id="f5Id884hNNlfexIlxboq-80" value="OUT PUT" style="text;html=1;align=center;verticalAlign=middle;resizable=0;points=[];autosize=1;strokeColor=none;fillColor=none;" parent="WIyWlLk6GJQsqaUBKTNV-1" vertex="1">
          <mxGeometry x="575" y="208" width="80" height="30" as="geometry" />
        </mxCell>
        <mxCell id="f5Id884hNNlfexIlxboq-82" value="&lt;font style=&quot;font-size: 30px;&quot;&gt;3 TIER ARCHITECTURE&lt;/font&gt;" style="rounded=1;whiteSpace=wrap;html=1;" parent="WIyWlLk6GJQsqaUBKTNV-1" vertex="1">
          <mxGeometry x="50" y="260" width="740" height="60" as="geometry" />
        </mxCell>
      </root>
    </mxGraphModel>
  </diagram>
  <diagram id="eMgmpI7ZmamxCQjlAPXy" name="Page-2">
    <mxGraphModel dx="780" dy="470" grid="1" gridSize="10" guides="1" tooltips="1" connect="1" arrows="1" fold="1" page="1" pageScale="1" pageWidth="850" pageHeight="1100" math="0" shadow="0">
      <root>
        <mxCell id="0" />
        <mxCell id="1" parent="0" />
        <mxCell id="A1q5nt0ulyDtFm9866hf-1" value="" style="rounded=1;arcSize=10;dashed=0;fillColor=none;gradientColor=none;strokeWidth=2;" vertex="1" parent="1">
          <mxGeometry x="130" y="170" width="630" height="480" as="geometry" />
        </mxCell>
        <mxCell id="A1q5nt0ulyDtFm9866hf-2" value="" style="dashed=0;html=1;shape=mxgraph.aws3.virtual_private_cloud;fillColor=#F58536;gradientColor=none;dashed=0;" vertex="1" parent="1">
          <mxGeometry x="330" y="170" width="52" height="36" as="geometry" />
        </mxCell>
        <mxCell id="A1q5nt0ulyDtFm9866hf-3" value="" style="outlineConnect=0;dashed=0;verticalLabelPosition=bottom;verticalAlign=top;align=center;html=1;shape=mxgraph.aws3.internet_gateway;fillColor=#F58536;gradientColor=none;" vertex="1" parent="1">
          <mxGeometry x="710" y="280" width="69" height="72" as="geometry" />
        </mxCell>
        <mxCell id="A1q5nt0ulyDtFm9866hf-5" value="" style="outlineConnect=0;dashed=0;verticalLabelPosition=bottom;verticalAlign=top;align=center;html=1;shape=mxgraph.aws3.router;fillColor=#F58536;gradientColor=none;" vertex="1" parent="1">
          <mxGeometry x="155" y="410" width="69" height="72" as="geometry" />
        </mxCell>
        <mxCell id="A1q5nt0ulyDtFm9866hf-8" value="" style="outlineConnect=0;dashed=0;verticalLabelPosition=bottom;verticalAlign=top;align=center;html=1;shape=mxgraph.aws3.router;fillColor=#F58536;gradientColor=none;" vertex="1" parent="1">
          <mxGeometry x="510" y="544" width="69" height="72" as="geometry" />
        </mxCell>
        <mxCell id="A1q5nt0ulyDtFm9866hf-9" value="" style="rounded=0;whiteSpace=wrap;html=1;" vertex="1" parent="1">
          <mxGeometry x="140" y="220" width="490" height="160" as="geometry" />
        </mxCell>
        <mxCell id="A1q5nt0ulyDtFm9866hf-6" value="Public Subnet" style="rounded=1;whiteSpace=wrap;html=1;fillColor=#d5e8d4;strokeColor=#82b366;" vertex="1" parent="1">
          <mxGeometry x="190" y="280" width="120" height="60" as="geometry" />
        </mxCell>
        <mxCell id="A1q5nt0ulyDtFm9866hf-7" value="Public subnet" style="rounded=1;whiteSpace=wrap;html=1;" vertex="1" parent="1">
          <mxGeometry x="375" y="280" width="120" height="60" as="geometry" />
        </mxCell>
        <mxCell id="A1q5nt0ulyDtFm9866hf-4" value="" style="outlineConnect=0;dashed=0;verticalLabelPosition=bottom;verticalAlign=top;align=center;html=1;shape=mxgraph.aws3.vpc_nat_gateway;fillColor=#F58536;gradientColor=none;" vertex="1" parent="1">
          <mxGeometry x="530" y="274" width="69" height="72" as="geometry" />
        </mxCell>
        <mxCell id="A1q5nt0ulyDtFm9866hf-14" value="Private Subnet" style="rounded=1;whiteSpace=wrap;html=1;fillColor=#f8cecc;strokeColor=#b85450;" vertex="1" parent="1">
          <mxGeometry x="330" y="550" width="120" height="60" as="geometry" />
        </mxCell>
        <mxCell id="A1q5nt0ulyDtFm9866hf-15" value="" style="shape=partialRectangle;whiteSpace=wrap;html=1;bottom=0;right=0;fillColor=none;" vertex="1" parent="1">
          <mxGeometry x="360" y="260" width="250" height="100" as="geometry" />
        </mxCell>
        <mxCell id="A1q5nt0ulyDtFm9866hf-16" value="" style="shape=partialRectangle;whiteSpace=wrap;html=1;top=0;left=0;fillColor=none;" vertex="1" parent="1">
          <mxGeometry x="360" y="260" width="250" height="100" as="geometry" />
        </mxCell>
        <mxCell id="A1q5nt0ulyDtFm9866hf-21" value="" style="endArrow=classic;html=1;rounded=0;" edge="1" parent="1" source="A1q5nt0ulyDtFm9866hf-16">
          <mxGeometry width="50" height="50" relative="1" as="geometry">
            <mxPoint x="230" y="400" as="sourcePoint" />
            <mxPoint x="180" y="450" as="targetPoint" />
          </mxGeometry>
        </mxCell>
        <mxCell id="A1q5nt0ulyDtFm9866hf-22" value="" style="endArrow=classic;html=1;rounded=0;" edge="1" parent="1" source="A1q5nt0ulyDtFm9866hf-6">
          <mxGeometry width="50" height="50" relative="1" as="geometry">
            <mxPoint x="230" y="370" as="sourcePoint" />
            <mxPoint x="180" y="420" as="targetPoint" />
          </mxGeometry>
        </mxCell>
        <mxCell id="A1q5nt0ulyDtFm9866hf-24" value="" style="endArrow=classic;html=1;rounded=0;" edge="1" parent="1" target="A1q5nt0ulyDtFm9866hf-8">
          <mxGeometry width="50" height="50" relative="1" as="geometry">
            <mxPoint x="450" y="575" as="sourcePoint" />
            <mxPoint x="500" y="525" as="targetPoint" />
          </mxGeometry>
        </mxCell>
        <mxCell id="A1q5nt0ulyDtFm9866hf-25" value="" style="endArrow=classic;html=1;rounded=0;exitX=0.84;exitY=0.7;exitDx=0;exitDy=0;exitPerimeter=0;" edge="1" parent="1" source="A1q5nt0ulyDtFm9866hf-16">
          <mxGeometry width="50" height="50" relative="1" as="geometry">
            <mxPoint x="530" y="350" as="sourcePoint" />
            <mxPoint x="540" y="560" as="targetPoint" />
            <Array as="points">
              <mxPoint x="540" y="560" />
            </Array>
          </mxGeometry>
        </mxCell>
        <mxCell id="A1q5nt0ulyDtFm9866hf-26" value="" style="endArrow=classic;html=1;rounded=0;" edge="1" parent="1" source="A1q5nt0ulyDtFm9866hf-3">
          <mxGeometry width="50" height="50" relative="1" as="geometry">
            <mxPoint x="249" y="410" as="sourcePoint" />
            <mxPoint x="199" y="460" as="targetPoint" />
            <Array as="points">
              <mxPoint x="500" y="470" />
            </Array>
          </mxGeometry>
        </mxCell>
        <mxCell id="A1q5nt0ulyDtFm9866hf-28" value="" style="endArrow=classic;html=1;rounded=0;" edge="1" parent="1" target="A1q5nt0ulyDtFm9866hf-3">
          <mxGeometry width="50" height="50" relative="1" as="geometry">
            <mxPoint x="630" y="324" as="sourcePoint" />
            <mxPoint x="680" y="274" as="targetPoint" />
          </mxGeometry>
        </mxCell>
        <mxCell id="A1q5nt0ulyDtFm9866hf-29" value="Internet" style="ellipse;shape=cloud;whiteSpace=wrap;html=1;fillColor=#dae8fc;strokeColor=#6c8ebf;" vertex="1" parent="1">
          <mxGeometry x="850" y="280" width="120" height="80" as="geometry" />
        </mxCell>
        <mxCell id="A1q5nt0ulyDtFm9866hf-30" value="" style="endArrow=classic;html=1;rounded=0;entryX=0.056;entryY=0.496;entryDx=0;entryDy=0;entryPerimeter=0;" edge="1" parent="1" target="A1q5nt0ulyDtFm9866hf-29">
          <mxGeometry width="50" height="50" relative="1" as="geometry">
            <mxPoint x="779" y="324" as="sourcePoint" />
            <mxPoint x="829" y="274" as="targetPoint" />
          </mxGeometry>
        </mxCell>
        <mxCell id="A1q5nt0ulyDtFm9866hf-32" value="&lt;font style=&quot;font-size: 30px;&quot;&gt;3 TIER ARCHITECTURE&lt;/font&gt;" style="rounded=1;whiteSpace=wrap;html=1;" vertex="1" parent="1">
          <mxGeometry x="155" y="70" width="560" height="60" as="geometry" />
        </mxCell>
        <mxCell id="A1q5nt0ulyDtFm9866hf-35" value="Public rt" style="rounded=1;whiteSpace=wrap;html=1;" vertex="1" parent="1">
          <mxGeometry x="130" y="482" width="120" height="30" as="geometry" />
        </mxCell>
        <mxCell id="A1q5nt0ulyDtFm9866hf-36" value="Private RT" style="rounded=1;whiteSpace=wrap;html=1;" vertex="1" parent="1">
          <mxGeometry x="579" y="600" width="120" height="30" as="geometry" />
        </mxCell>
        <mxCell id="A1q5nt0ulyDtFm9866hf-37" value="IGW" style="text;html=1;align=center;verticalAlign=middle;resizable=0;points=[];autosize=1;strokeColor=none;fillColor=none;" vertex="1" parent="1">
          <mxGeometry x="775" y="268" width="50" height="30" as="geometry" />
        </mxCell>
        <mxCell id="A1q5nt0ulyDtFm9866hf-38" value="NGW" style="ellipse;whiteSpace=wrap;html=1;aspect=fixed;" vertex="1" parent="1">
          <mxGeometry x="579" y="260" width="30" height="30" as="geometry" />
        </mxCell>
      </root>
    </mxGraphModel>
  </diagram>
</mxfile>
